<?xml version="1.0" encoding="UTF-8" standalone="no"?>
<!-- Created with Inkscape (http://www.inkscape.org/) -->

<svg
   xmlns:dc="http://purl.org/dc/elements/1.1/"
   xmlns:cc="http://creativecommons.org/ns#"
   xmlns:rdf="http://www.w3.org/1999/02/22-rdf-syntax-ns#"
   xmlns:svg="http://www.w3.org/2000/svg"
   xmlns="http://www.w3.org/2000/svg"
   xmlns:sodipodi="http://sodipodi.sourceforge.net/DTD/sodipodi-0.dtd"
   xmlns:inkscape="http://www.inkscape.org/namespaces/inkscape"
   width="500"
   height="500"
   viewBox="0 0 500.00001 500.00001"
   id="svg2"
   version="1.1"
   inkscape:version="0.91 r13725"
   sodipodi:docname="logo.svg"
   inkscape:export-filename="/Users/Moniet97/Documents/Web Design/pantingpanda.github.io/favicon.png"
   inkscape:export-xdpi="11.52"
   inkscape:export-ydpi="11.52">
  <defs
     id="defs4">
    <filter
       style="color-interpolation-filters:sRGB"
       id="filter4197"
       inkscape:label="filter1" />
    <filter
       style="color-interpolation-filters:sRGB;"
       inkscape:label="Noise Fill"
       id="filter4439">
      <feTurbulence
         type="turbulence"
         baseFrequency="1 1"
         numOctaves="1"
         seed="1000"
         result="turbulence"
         id="feTurbulence4441" />
      <feComposite
         in="SourceGraphic"
         in2="turbulence"
         operator="in"
         result="composite1"
         id="feComposite4443" />
      <feColorMatrix
         values="1 0 0 0 0 0 1 0 0 0 0 0 1 0 0 0 0 0 5.04 -0.3 "
         result="color"
         id="feColorMatrix4445" />
      <feFlood
         flood-opacity="0.10000000000000001"
         flood-color="rgb(136,136,136)"
         result="flood"
         id="feFlood4447" />
      <feMerge
         result="merge"
         id="feMerge4449">
        <feMergeNode
           in="flood"
           id="feMergeNode4451" />
        <feMergeNode
           in="color"
           id="feMergeNode4453" />
      </feMerge>
      <feComposite
         in2="SourceGraphic"
         operator="in"
         result="composite2"
         id="feComposite4455" />
    </filter>
    <filter
       inkscape:label="Cross Noise"
       inkscape:menu="Overlays"
       inkscape:menu-tooltip="Adds a small scale screen like graininess"
       style="color-interpolation-filters:sRGB;"
       id="filter4457">
      <feTurbulence
         type="fractalNoise"
         numOctaves="5"
         baseFrequency="1"
         seed="745.76271186440681"
         result="result0"
         id="feTurbulence4459" />
      <feConvolveMatrix
         kernelMatrix="-2 0 -2 0 -10 0 -2 0 -2 "
         order="3 3"
         result="result5"
         id="feConvolveMatrix4461" />
      <feColorMatrix
         result="result4"
         values="0"
         type="saturate"
         in="result5"
         id="feColorMatrix4463"
         seed="746" />
      <feComposite
         in2="result4"
         in="SourceGraphic"
         operator="arithmetic"
         k1="1.5"
         k2="0.5"
         k3="0.5"
         result="result2"
         id="feComposite4465" />
      <feBlend
         result="result6"
         in2="result4"
         mode="normal"
         id="feBlend4467" />
      <feComposite
         in2="SourceGraphic"
         in="result6"
         operator="in"
         result="result3"
         id="feComposite4469" />
    </filter>
  </defs>
  <sodipodi:namedview
     id="base"
     pagecolor="#dfdfdf"
     bordercolor="#666666"
     borderopacity="1.0"
     inkscape:pageopacity="0"
     inkscape:pageshadow="2"
     inkscape:zoom="0.82578125"
     inkscape:cx="452.61043"
     inkscape:cy="279.6432"
     inkscape:document-units="px"
     inkscape:current-layer="layer1"
     showgrid="false"
     units="px"
     showguides="true"
     inkscape:guide-bbox="true"
     inkscape:window-width="1440"
     inkscape:window-height="786"
     inkscape:window-x="0"
     inkscape:window-y="1"
     inkscape:window-maximized="1" />
  <metadata
     id="metadata7">
    <rdf:RDF>
      <cc:Work
         rdf:about="">
        <dc:format>image/svg+xml</dc:format>
        <dc:type
           rdf:resource="http://purl.org/dc/dcmitype/StillImage" />
        <dc:title></dc:title>
      </cc:Work>
    </rdf:RDF>
  </metadata>
  <g
     inkscape:groupmode="layer"
     id="layer2"
     inkscape:label="bg"
     style="display:none">
    <rect
       transform="translate(0,-552.36216)"
       style="display:inline;opacity:1;fill:#aaffee;fill-opacity:1;fill-rule:nonzero;stroke:none;stroke-width:1;stroke-linecap:butt;stroke-linejoin:miter;stroke-miterlimit:4;stroke-dasharray:none;stroke-dashoffset:0;stroke-opacity:1"
       id="rect4486"
       width="500"
       height="500"
       x="0"
       y="552.36218" />
  </g>
  <g
     inkscape:groupmode="layer"
     id="layer3"
     inkscape:label="white_panda_bg"
     style="display:inline">
    <path
       sodipodi:nodetypes="ccscccscssscsssscccscscssssccccsscccssscssccccccccccccccccsccscscsccccsccccsssccssscssccscscc"
       style="fill:#ffffff"
       d="m 226.29862,484.27414 c -2.97706,-0.62599 -10.1012,-1.38675 -15.83146,-1.69074 -5.73026,-0.30376 -15.26302,-1.05885 -21.18396,-1.67734 -9.67629,-1.01102 -13.76446,-0.54362 -17.44054,-4.56835 -8.67481,-1.86079 -12.53339,-4.72028 -20.80131,-12.45187 -4.56616,-0.0181 -27.30487,-24.4047 -33.03095,-35.42929 -2.77776,-5.34826 -6.45366,-11.2869 -8.1686,-13.19697 -1.71497,-1.9101 -3.88316,-5.41846 -4.81815,-7.79641 -0.935,-2.37786 -4.34167,-6.30277 -7.570342,-8.72194 -4.33165,-3.24552 -6.35372,-6.03552 -7.71452,-10.64426 -1.01427,-3.4352 -3.634598,-8.88716 -5.822872,-12.11539 -2.188302,-3.22819 -3.990034,-6.55402 -4.004026,-7.39066 -0.0097,-0.83626 -1.281715,-2.65821 -2.817379,-4.04799 -3.17006,-2.8689 -6.931883,-14.24569 -6.931883,-20.96374 0,-2.47314 -2.187913,-9.0621 -4.862029,-14.64206 -2.674135,-5.57995 -4.862047,-11.32956 -4.862047,-12.7768 0,-1.44723 -2.142162,-5.54958 -4.76035,-9.11628 -2.618281,-3.5667 -5.187944,-8.18851 -5.710541,-10.27058 -0.52232,-2.08215 -1.506027,-4.1293 -2.185427,-4.54919 -0.679763,-0.41953 -1.235224,-2.25247 -1.235224,-4.07236 0,-1.81989 -0.625124,-3.69525 -1.389164,-4.16747 -0.764028,-0.47232 -1.389152,-2.08039 -1.389152,-3.57373 0,-1.49335 -0.606597,-3.80063 -1.347013,-5.12729 -2.530207,-4.53123 -8.453936,-30.025 -9.742326,-41.92801 -1.392859,-12.8683 -2.414079,-16.88676 -6.726744,-26.46904 -1.547429,-3.43817 -4.11394,-13.12751 -5.703411,-21.53191 -1.589471,-8.40439 -3.489928,-16.53093 -4.223219,-18.05901 -2.249692,-4.68794 -8.3193803,-38.95227 -8.9131023,-50.31583 -0.168555,-3.22461 -0.688097,-6.2449 -1.155221,-6.71174 -0.466763,-0.46677 0.02777,-2.95594 1.107526,-5.53125 1.421098,-3.40129 1.578819,-5.675345 0.576028,-8.312035 C 3.2671327,84.919892 10.922597,59.224588 21.76513,49.018108 28.946983,42.257557 44.832319,32.176745 53.393312,28.946861 c 6.685455,-2.522235 9.347529,-2.782012 19.547346,-1.907027 6.494207,0.557502 18.20681,1.16225 26.02794,1.344706 13.307652,0.310237 14.549282,0.58807 19.348722,4.331108 2.82071,2.199582 8.29898,5.562079 12.1738,7.47215 4.27831,2.108939 7.75584,4.970965 8.85466,7.287337 0.99518,2.097889 3.68533,5.848596 5.97808,8.334913 2.29275,2.486304 5.76342,7.42744 7.71269,10.980351 3.95214,7.20379 4.18209,7.223337 17.14485,1.455463 3.43816,-1.529844 10.00191,-3.567625 14.58611,-4.528467 4.58421,-0.960832 9.66658,-2.935951 11.29411,-4.389084 2.42955,-2.169294 6.28296,-2.843875 21.53088,-3.769054 10.21445,-0.619569 19.22517,-0.876084 20.02373,-0.569555 0.79831,0.306553 4.23731,-0.476932 7.64138,-1.741347 4.87566,-1.810527 12.82356,-2.416291 37.44532,-2.853584 17.19079,-0.305635 34.69412,-0.760344 38.89631,-1.011775 55.24945,10.36276 45.88158,1.517609 35.33288,34.108732 3.15643,-14.092501 -3.491,-17.606404 8.63234,-27.974779 6.11679,-5.094966 14.81808,-11.23712 18.14411,-12.807799 2.02437,-0.955662 3.96007,-2.839802 4.30153,-4.186441 0.45718,-1.803993 1.18058,-2.191116 2.74746,-1.470591 1.56946,0.721551 3.75615,-0.492561 8.3495,-4.635137 4.54766,-4.101573 8.44608,-6.278365 14.48013,-8.085316 4.54141,-1.359756 10.98078,-4.266818 14.30976,-6.459795 5.72295,-3.769777 6.51745,-3.963199 14.57805,-3.549494 6.52802,0.335383 8.80741,1.088661 9.72913,3.21532 0.98722,2.27805 2.10979,2.534494 6.24385,1.426773 6.20817,-1.663457 11.30878,1.151695 14.59661,8.056439 1.27629,2.680753 4.14114,6.144944 6.36609,7.698243 3.55954,2.485156 4.6911,4.802459 9.42629,19.303354 l 5.38116,16.479134 -2.1138,9.195336 c -2.4677,10.73491 -2.81121,21.813665 -0.78641,25.369965 0.78401,1.3766 0.77488,2.67723 -0.0267,2.89199 -0.79794,0.21381 -3.49147,6.43649 -5.98474,13.82795 3.27252,0.40689 -4.53184,9.1061 -4.53184,9.1061 -1.36342,0.87252 -3.49277,4.05352 -4.73182,7.06952 -1.23895,3.01595 -3.31469,6.16295 -4.61262,6.99327 -1.29801,0.83007 -2.82141,3.69079 -3.38545,6.35659 -0.56403,2.66581 -1.9149,6.30677 -3.0019,8.09103 -1.53347,2.51693 -1.51016,4.2874 0.10374,7.8978 1.77997,3.98076 -18.3742,45.02668 -20.5385,62.50605 -0.37879,3.05615 -1.39454,12.7178 -2.25796,21.47041 -0.86311,8.75249 -2.13076,17.3886 -2.81607,19.19124 -0.68531,1.80267 -1.24617,5.65794 -1.24617,8.5672 0,2.90926 -1.20079,8.0258 -2.66849,11.37007 -1.46767,3.34434 -3.08853,8.58099 -3.60188,11.63712 -0.98167,5.84472 -11.42405,37.90143 -13.12286,40.28548 -1.11542,1.56549 -4.49274,10.30383 -11.73791,30.37026 -5.01484,13.88943 -7.7514,18.04623 -21.32315,32.38944 -4.01873,4.2472 -9.26187,10.30474 -11.65131,13.46128 -6.87975,9.0883 -29.31421,30.08585 -33.13524,31.01278 -1.91008,0.46306 -7.02309,3.5229 -11.36235,6.7989 -9.11563,6.88201 -15.29394,10.29671 -18.63061,10.29671 -1.29125,0 -4.91676,1.17913 -8.05663,2.62023 -3.13976,1.4411 -7.27158,3.34127 -9.18165,4.22244 -1.91009,0.88167 -5.03569,2.50598 -6.94578,3.61048 -1.91008,1.10462 -5.54309,2.01756 -8.07349,2.02879 -2.53039,0.0121 -10.09488,1.60113 -16.81016,3.53306 -12.51359,3.59996 -23.77723,4.1053 -35.6884,1.60089 z"
       id="path4471"
       inkscape:connector-curvature="0" />
  </g>
  <g
     inkscape:label="the_panda_svg"
     inkscape:groupmode="layer"
     id="layer1"
     transform="translate(0,-552.36216)"
     style="display:inline">
    <path
       inkscape:connector-curvature="0"
       id="path4439"
       d="m 226.29862,1036.6363 c -2.97706,-0.6259 -10.1012,-1.3868 -15.83146,-1.6907 -5.73026,-0.3037 -15.26302,-1.0589 -21.18396,-1.6773 -9.67629,-1.0111 -13.76446,-0.5437 -17.44054,-4.5684 -8.67481,-1.8608 -12.53339,-4.7202 -20.80131,-12.4518 -4.56616,-0.018 -27.30487,-24.40483 -33.03095,-35.4294 -2.77776,-5.34827 -6.45366,-11.28683 -8.1686,-13.19694 -1.71497,-1.91012 -3.88316,-5.41847 -4.81815,-7.79646 -0.93499,-2.3778 -4.34166,-6.30276 -7.570332,-8.72194 -4.33166,-3.24545 -6.35373,-6.03548 -7.71453,-10.64422 -1.01427,-3.4352 -3.634596,-8.88716 -5.82287,-12.11539 -2.188302,-3.22819 -3.990034,-6.55402 -4.004026,-7.39066 -0.0097,-0.83626 -1.281715,-2.65821 -2.817379,-4.04799 -3.17006,-2.8689 -6.931883,-14.24569 -6.931883,-20.96374 0,-2.47314 -2.187913,-9.0621 -4.862038,-14.64206 -2.674126,-5.57995 -4.862048,-11.32956 -4.862048,-12.7768 0,-1.44723 -2.142152,-5.54958 -4.760349,-9.11628 -2.618273,-3.5667 -5.187936,-8.18851 -5.710533,-10.27058 -0.52232,-2.08215 -1.506027,-4.1293 -2.185427,-4.54919 -0.679764,-0.41953 -1.235224,-2.25247 -1.235224,-4.07236 0,-1.81989 -0.625124,-3.69525 -1.389164,-4.16747 -0.764028,-0.47232 -1.389152,-2.08039 -1.389152,-3.57373 0,-1.49335 -0.606597,-3.80063 -1.347013,-5.12729 -2.530207,-4.53123 -8.453937,-30.025 -9.742326,-41.92801 -1.392859,-12.8683 -2.41408,-16.88676 -6.726745,-26.46904 -1.547429,-3.43817 -4.11394,-13.12751 -5.703412,-21.5319 -1.58947,-8.4044 -3.489926,-16.53094 -4.223217,-18.05902 -2.249692,-4.68794 -8.3193749,-38.95227 -8.9130949,-50.31583 -0.168553,-3.22461 -0.688094,-6.2449 -1.155227,-6.71174 -0.466756,-0.46677 0.02773,-2.95594 1.107532,-5.53125 1.421098,-3.40129 1.578819,-5.67535 0.576025,-8.31204 -4.374078,-11.50471 3.2813799,-37.2 14.1239139,-47.40649 7.181852,-6.76055 23.067189,-16.84136 31.628181,-20.07125 6.685457,-2.52223 9.347531,-2.78201 19.547348,-1.90702 6.494207,0.5575 18.206818,1.16225 26.027948,1.34471 13.307642,0.31023 14.549272,0.58806 19.348712,4.3311 2.82071,2.19958 8.29898,5.56208 12.1738,7.47215 4.27831,2.10894 7.75584,4.97096 8.85466,7.28734 0.99518,2.09788 3.68533,5.84861 5.97808,8.33493 2.29275,2.4863 5.76342,7.42743 7.71269,10.98034 3.95214,7.20377 4.18209,7.22332 17.14485,1.45546 3.43816,-1.52985 10.00191,-3.56762 14.58611,-4.52847 4.58421,-0.96083 9.66658,-2.93594 11.29411,-4.38907 2.42955,-2.1693 6.28296,-2.84388 21.53088,-3.76906 10.21445,-0.61957 19.22517,-0.87608 20.02373,-0.56956 0.79831,0.30656 4.23731,-0.47693 7.64138,-1.74134 4.87566,-1.81054 12.82356,-2.41631 37.44532,-2.85359 17.19079,-0.30564 34.69412,-0.76035 38.89631,-1.01178 55.24945,10.36277 45.88158,1.5176 35.33288,34.10872 1.12969,-0.33146 -0.39465,-17.65225 1.97407,-20.62011 2.36874,-2.96778 5.36494,-6.27743 6.65827,-7.35464 6.11679,-5.09499 14.81808,-11.23714 18.14411,-12.80782 2.02437,-0.95566 3.96007,-2.8398 4.30153,-4.18644 0.45718,-1.804 1.18058,-2.19112 2.74746,-1.47059 1.56946,0.72155 3.75615,-0.49256 8.3495,-4.63514 4.54766,-4.10157 8.44608,-6.27837 14.48013,-8.08531 4.54141,-1.35976 10.98078,-4.26682 14.30976,-6.4598 5.72295,-3.76978 6.51745,-3.9632 14.57805,-3.54949 6.52802,0.33538 8.80741,1.08866 9.72913,3.21531 0.98722,2.27806 2.10979,2.5345 6.24385,1.42678 6.20817,-1.66346 11.30878,1.15169 14.59661,8.05644 1.27629,2.68075 4.14114,6.14494 6.36609,7.69824 3.55954,2.48516 4.6911,4.80246 9.42629,19.30337 l 5.38116,16.47911 -2.1138,9.19534 c -2.4677,10.73491 -2.81121,21.81367 -0.78641,25.36997 0.78401,1.3766 0.77488,2.67723 -0.0267,2.89199 -0.79794,0.21381 -3.49147,6.43649 -5.98474,13.82795 3.27252,0.40689 -4.53184,9.1061 -4.53184,9.1061 -1.36342,0.87252 -3.49277,4.05352 -4.73182,7.06952 -1.23895,3.01595 -3.31469,6.16295 -4.61262,6.99327 -1.29801,0.83007 -2.82141,3.69079 -3.38545,6.35659 -0.56403,2.66582 -1.9149,6.30677 -3.0019,8.09103 -1.53347,2.51693 -1.51016,4.2874 0.10374,7.8978 1.77997,3.98076 -18.3742,45.02668 -20.5385,62.50605 -0.37879,3.05615 -1.39454,12.7178 -2.25796,21.47041 -0.86311,8.75249 -2.13076,17.3886 -2.81607,19.19124 -0.68531,1.80267 -1.24617,5.65794 -1.24617,8.5672 0,2.90926 -1.20079,8.0258 -2.66849,11.37007 -1.46767,3.34434 -3.08853,8.58099 -3.60188,11.63712 -0.98167,5.84472 -11.42405,37.90143 -13.12286,40.28548 -1.11542,1.56549 -4.49274,10.30383 -11.73791,30.37026 -5.01484,13.88943 -7.7514,18.04626 -21.32315,32.38945 -4.01873,4.2472 -9.26187,10.30475 -11.65131,13.46127 -6.87975,9.08832 -29.31421,30.08589 -33.13524,31.01289 -1.91008,0.463 -7.02309,3.5229 -11.36235,6.7988 -9.11563,6.882 -15.29394,10.2967 -18.63061,10.2967 -1.29125,0 -4.91676,1.1792 -8.05663,2.6203 -3.13976,1.4411 -7.27158,3.3412 -9.18165,4.2224 -1.91009,0.8817 -5.03569,2.506 -6.94578,3.6104 -1.91008,1.1047 -5.54309,2.0176 -8.07349,2.0289 -2.53039,0.012 -10.09488,1.6011 -16.81016,3.533 -12.51359,3.6 -23.77723,4.1053 -35.6884,1.6009 z m 45.79989,-47.56673 c 5.34824,-1.73638 11.2164,-3.98378 13.04026,-4.99439 1.82388,-1.01041 5.26203,-1.55172 7.64036,-1.20283 3.18015,0.46673 6.34555,-0.57697 11.96452,-3.94293 4.20219,-2.51753 9.63387,-7.91583 12.07035,-9.04391 2.43648,-1.12807 -2.83443,-5.22452 3.04828,-9.10325 5.88278,-3.87854 3.89102,-7.05208 4.43077,-7.05208 0.53992,0 2.17217,-1.33115 3.62763,-2.9583 1.45555,-1.62714 5.30316,-4.10539 8.55025,-5.5073 3.24718,-1.40182 5.9039,-3.12018 5.9039,-3.81852 0,-0.69825 3.48122,-3.95518 7.73593,-7.23776 4.25479,-3.28247 4.10171,-8.31398 5.56438,-11.18112 1.46269,-2.86711 3.76386,-5.59679 5.11375,-6.06588 1.34989,-0.46953 4.32962,-3.39971 6.62174,-6.51263 2.29211,-3.11291 2.93091,-9.54764 7.32407,-14.29958 4.39324,-4.75183 7.98764,-9.27114 7.98764,-10.04284 0,-0.77146 1.25024,-2.53458 2.77829,-3.91753 1.52809,-1.38285 2.77832,-3.75144 2.77832,-5.2634 0,-4.043 2.99705,-13.86645 4.96336,-16.26849 2.28803,-2.79497 6.1509,-12.28772 6.1459,-15.10307 -0.004,-1.24376 1.49622,-6.01208 3.32981,-10.59628 4.85639,-12.14186 10.56572,-30.93075 10.56572,-34.77082 0,-1.82747 1.30414,-4.53773 2.89807,-6.02265 2.17476,-2.02612 2.57584,-3.33979 1.60696,-5.26351 -0.80387,-1.59613 -0.75293,-6.90075 0.13424,-14.05814 1.04482,-8.42708 0.98667,-13.3393 -0.21763,-18.40629 1.59285,-17.63573 7.42952,-32.5546 -5.43883,-39.70397 -8.48233,-21.11311 -18.31449,-19.84955 -33.66017,-30.28154 -4.41303,-3.99317 -33.367,-7.71964 -52.14448,-15.87798 -4.5842,-1.99175 -10.02452,-4.53456 -12.08964,-5.6508 -2.06501,-1.11614 -6.1283,-2.09641 -9.0295,-2.17828 -2.9011,-0.0833 -6.21249,-0.89462 -7.35853,-1.80572 -3.25395,-2.58734 -16.55578,-5.11338 -19.1833,-3.64301 -1.28783,0.72051 -3.23997,0.75849 -4.494,0.0833 -2.83168,-1.51548 -24.2703,0.47416 -36.82206,3.4174 -18.93326,4.43947 -20.69386,0.31838 -24.6875,5.12448 -3.00501,3.61645 -4.99003,4.71916 -8.49486,4.71916 -2.51549,0 -6.19683,1.27682 -8.18084,2.83738 -1.98398,1.56058 -6.91287,-3.43424 -10.95329,-2.24271 -4.0403,1.19143 -7.97116,2.64143 -8.73519,3.22218 -0.76402,0.58068 -3.26451,1.50279 -5.55662,2.0491 -2.29209,0.5464 -6.04281,1.82406 -8.33493,2.83952 -2.29209,1.01547 -5.96864,2.24998 -8.16997,2.7434 -3.70146,0.82978 -16.00095,9.71213 -30.37657,21.93736 -1.57224,1.33699 -3.7358,2.43101 -4.80787,2.43101 -1.07213,0 -3.13216,2.65672 -4.5779,5.90391 -1.44565,3.24711 -3.91104,6.69053 -5.47845,7.65211 -1.56753,0.96147 -2.84998,2.94592 -2.84998,4.40973 0,3.74127 -8.202702,24.10136 -10.415162,25.85199 -1.00695,0.79643 -3.45085,5.43529 -5.43075,10.30799 -1.97993,4.87269 -4.453999,9.84688 -5.497915,11.05377 -1.408971,1.6291 -1.647521,4.34168 -0.926105,10.52942 0.534361,4.5842 0.46583,10.52285 -0.153736,13.19697 -2.873317,12.41052 -0.615847,41.13825 3.765276,47.91232 0.99305,1.53548 3.1756,6.54255 4.85018,11.12676 1.67449,4.58421 4.2624,9.67453 5.75072,11.31196 2.535882,2.78982 6.131742,8.68057 9.206302,15.08197 0.73441,1.52808 2.47918,6.40587 3.87843,10.83966 2.31961,7.35022 5.45466,12.40397 8.48375,13.67605 0.64088,0.26858 3.78055,5.97596 6.97801,12.68215 5.58966,11.72383 16.60011,29.35677 23.46329,37.57583 1.8034,2.1597 3.27894,4.56432 3.27894,5.34361 0,0.77881 3.75074,5.51016 8.33494,10.51296 4.58421,5.00291 8.33492,9.63077 8.33492,10.28431 0,0.65383 1.42371,1.18829 3.16376,1.18829 1.74016,0 4.45743,0.90578 6.03838,2.0135 1.58105,1.10734 4.06439,2.00352 5.51846,1.99144 12.08731,-0.1 63.25939,3.82272 63.93804,4.50142 1.20589,1.2057 12.44733,1.1706 23.2582,-2.3392 z m -52.94914,-48.28219 c -4.44149,-1.49857 -5.85399,-4.12453 -3.12559,-5.81077 2.57253,-1.58985 1.41665,-4.69729 -2.43101,-6.53533 -3.48326,-1.66412 -3.8566,-2.5892 -4.23361,-10.49117 -0.38246,-8.01552 -0.0464,-9.16176 4.42419,-15.26802 8.41484,-11.48349 8.88161,-11.82975 14.52573,-10.77512 2.79351,0.52232 5.83317,1.57207 6.75473,2.33352 0.92147,0.76125 2.27276,1.01536 3.0026,0.56399 2.76925,-1.71144 9.76697,4.07828 12.42628,10.28103 7.13525,16.64272 6.91594,19.68822 -1.78784,24.82355 -2.69386,1.58947 -4.89798,3.52151 -4.89798,4.29341 0,1.86666 -10.43107,6.83383 -15.84154,7.54358 -2.36564,0.31027 -6.33279,-0.12136 -8.81596,-0.95895 z m 97.58201,-69.77773 c -4.18284,-1.75127 -11.05933,-9.40198 -14.29941,-15.90944 -0.95109,-1.91008 -3.21747,-5.50616 -5.03641,-7.99125 -2.12865,-2.90833 -3.62181,-7.36355 -4.19016,-12.50239 -0.90296,-8.16647 -0.12227,-28.59436 1.17291,-30.69031 0.39638,-0.64088 1.01509,-11.96239 1.376,-25.15963 0.59733,-21.83223 0.91499,-24.2703 3.52669,-27.05035 1.57872,-1.68052 2.87036,-4.65886 2.87036,-6.61859 0,-6.626 16.85638,-20.56802 24.86745,-20.56802 1.51343,0 3.10448,-0.57047 3.53558,-1.2683 0.43157,-0.69735 3.20164,-1.67671 6.15682,-2.17596 5.95699,-1.0065 12.87006,1.30708 17.66413,5.91158 1.59993,1.53669 0,0 16.18438,8.49149 3.47263,15.96482 1.93134,14.58835 3.47263,15.96482 3.44559,3.07703 -0.76442,6.99259 -0.96002,18.2239 -0.0833,4.58421 0.57604,14.14169 1.45789,21.2387 1.2684,10.21018 1.22606,14.70494 -0.20283,21.5319 -2.35248,11.24075 -8.97234,26.78789 -14.00647,32.89518 -2.19597,2.66402 -3.99262,6.26407 -3.99262,8.00005 0,2.20283 -0.81774,3.15632 -2.70756,3.15632 -1.48916,0 -4.32647,2.12238 -6.30499,4.71638 -2.42666,3.18164 -5.04894,4.91659 -8.05831,5.33195 -2.45353,0.33895 -7.58663,1.87639 -11.40681,3.41742 -5.97503,2.41027 -7.52903,2.5577 -11.11935,1.05455 z m 22.54663,-48.11818 c 4.94437,-2.4342 9.81891,-5.71603 10.83225,-7.29308 1.23459,-1.92147 1.95677,-8.82484 2.18912,-20.92641 0.18244,-73.68089 10.74453,17.58976 -0.72525,-33.67827 2.51039,1.16115 0.95327,-7.20512 1.27962,-7.53155 0.32691,-0.32599 -0.67049,-2.67181 -2.21514,-5.21202 -2.74887,-4.51993 -2.96048,-4.59839 -9.92227,-3.67487 -7.89539,1.04733 -17.72766,7.58997 -17.72766,11.79643 0,1.34543 -1.17447,3.50918 -2.60993,4.80822 -6.26397,5.66887 -7.37846,40.14418 -1.71135,52.94023 4.27822,9.66008 6.79545,13.19697 9.39216,13.19697 1.2257,0 6.27398,-1.99159 11.21845,-4.42565 z m -196.83539,49.72127 c -0.51306,-0.8307 -1.87582,-1.5102 -3.0278,-1.5102 -3.12413,0 -11.51398,-6.85325 -13.79875,-11.2716 -1.10096,-2.12911 -2.00187,-5.26841 -2.00187,-6.97615 0,-1.70783 -1.36369,-4.55671 -3.03049,-6.33083 -2.95131,-3.14154 -2.96816,-3.35667 -0.64457,-8.23001 1.64596,-3.45159 2.32664,-8.08136 2.19412,-14.92267 -0.10556,-5.45531 -0.20559,-11.79402 -0.22134,-14.08613 -0.0964,-13.89951 6.53699,-51.42306 10.06323,-56.92746 1.47825,-2.30739 4.07689,-6.85204 5.7748,-10.09924 1.69793,-3.24711 3.52596,-5.90391 4.06226,-5.90391 0.53622,0 2.27164,-2.19756 3.85638,-4.88344 1.58476,-2.68579 4.61581,-5.52697 6.73574,-6.31371 2.11995,-0.78624 4.56033,-2.35619 5.42317,-3.4877 2.20218,-2.88814 26.38153,-3.4626 31.47335,-0.74736 5.06957,2.70293 4.68691,1.55326 10.47431,31.46695 2.84118,14.68532 2.74349,19.69228 -1.09679,56.20177 -1.92371,18.28876 -3.2108,22.07106 -11.45627,33.66579 -3.6592,5.14552 -6.65321,9.85346 -6.65321,10.46209 0,0.60846 -3.71312,4.78101 -8.25139,9.27196 -7.28204,7.20611 -9.11804,8.29474 -15.62799,9.26696 -4.05708,0.60568 -8.7125,1.49851 -10.34541,1.98362 -1.63281,0.48528 -3.38879,0.2019 -3.90214,-0.62789 z m 16.90175,-34.91001 c 1.69671,-1.07058 3.75775,-3.5267 4.58004,-5.45799 0.82238,-1.93129 4.27868,-5.61608 7.68101,-8.18842 4.59228,-3.47214 6.18582,-5.62645 6.18582,-8.36281 0,-2.02724 1.18698,-8.04913 2.63762,-13.382 2.37675,-8.73731 3.59299,-21.73425 3.12791,-33.42444 -0.18707,-4.69239 -7.5607,-22.03683 -10.0134,-23.55275 -2.46945,-1.52612 -9.55617,6.37353 -11.20111,12.486 -0.83257,3.09253 -2.96123,8.12322 -4.731,11.17935 -1.76988,3.05614 -3.65942,8.68221 -4.19895,12.50239 -0.53993,3.82018 -3.99712,-8.80641 -4.73123,-7.393 -0.73442,1.41342 0.85344,24.44896 0.57569,30.52383 -0.28245,6.18683 -1.45082,12.94118 -2.65512,15.35524 -1.18254,2.37056 -2.15012,5.7361 -2.15012,7.47902 0,1.74302 -0.62975,4.825 -1.39907,6.84892 -0.7696,2.02399 8.22499,4.19189 8.61127,4.81758 1.10103,1.78145 4.25238,0.73254 7.68018,-1.43092 z M 55.422878,700.10891 c 0.461195,-1.20145 0.2056,-3.36639 -0.567707,-4.81094 -0.773292,-1.44462 -1.453791,-7.30944 -1.512609,-13.03295 -0.07404,-7.14332 -0.719582,-10.91514 -2.062248,-12.02898 -2.378222,-1.9738 -2.461388,-7.83603 -0.169473,-11.95599 2.725066,-4.8988 13.591862,-11.35819 21.83,-12.97608 4.20219,-0.82517 9.351611,-2.03567 11.443314,-2.68987 3.598833,-1.1255 16.266805,0.78995 22.243605,3.36342 3.50677,1.50992 3.20033,-2.90853 -0.33248,-4.79944 -1.52019,-0.81404 -3.66431,-3.17978 -4.7648,-5.25823 -1.10038,-2.07845 -6.508742,-8.37149 -12.018592,-13.98471 -9.162872,-9.33465 -10.38356,-10.13259 -14.302829,-9.34875 -12.167051,2.43345 -27.934602,14.97511 -34.321376,27.29958 -3.090497,5.96355 -3.553818,10.90256 -2.66161,28.37293 0.426001,8.33596 6.821301,26.34051 11.472922,32.29787 1.87193,2.39738 4.717747,2.17467 5.724149,-0.44825 z M 448.09416,657.82584 c -0.397,-1.48163 -0.28891,-3.15356 0.23988,-3.71519 0.52926,-0.56175 3.06302,-6.41024 2.47122,-10.4689 -1.30932,-8.97843 -8.9405,-14.33633 -16.1914,-18.60516 -4.86688,-2.86523 -23.62253,-2.67903 -25.3383,-0.85726 -0.51269,0.54485 -4.17214,2.81486 -8.13215,5.04555 -6.65316,3.74763 -13.00772,8.27754 -17.22149,12.27661 -1.04412,0.99118 -1.20739,3.60828 -0.41536,6.6622 0.88627,3.41497 0.62337,5.87601 -0.81559,7.66465 -1.8205,2.2622 -1.78857,2.73773 0.22578,3.36529 1.2904,0.4021 3.33126,0.47662 4.53549,0.16604 1.20361,-0.31251 3.16626,0.12734 4.36026,0.97309 2.08984,0.48701 2.36165,-6.71688 2.71429,-7.8149 0.67518,-1.85417 6.07362,-6.92659 7.14835,-6.83921 1.07473,0.0878 2.85331,-0.65614 3.95225,-1.65345 2.72224,-2.46892 9.77955,-1.31008 20.34302,3.34048 5.04224,2.21979 8.84781,4.84226 9.26015,6.38115 1.04085,3.8845 -0.0639,26.42551 -2.70882,32.07725 10.68937,-2.49132 10.232,-13.07231 12.31457,-14.15837 1.82853,-0.95357 0.34714,-7.41651 3.25785,-13.83987 z"
       style="fill:#000000"
       sodipodi:nodetypes="ccscccscssscsssscccscscssssccccsscccssscsscccccccccccccccccsccscscsccccsccccsssccssscssccscsccccccscsccscscscscsccssccccccscccccsssscccsccsscscscccscccsccssssscsccccccsccccscscccccccccsssccscsccccssccsccccccccsscssccsssccccccsccccssssscccccccssccccccccscccccccccccsccssscscccccscccccccccccsscsc" />
  </g>
</svg>
